# xmcd
#
# Track frame offsets: 
#        150
#        15513
#        29482
#        46232
#        50038
#        72028
#        86663
#        103030
#        121160
#        138884
#        152755
#        169643
#
# Disc length: 2481 seconds
#
# Revision: 0
# Processed by: cddbd v1.5.2PL0 Copyright (c) Steve Scherf et al.
# Submitted via: ExactAudioCopy v1.0b3
#
DISCID=9409af0c
DTITLE=Joshua na die reën - Joshua na die reën
DYEAR=2013
DGENRE=Afrikaans
TTITLE0=Hardloop in die veld in
TTITLE1=Waar's jy
TTITLE2=Dra die liggies
TTITLE3=Hou vas
TTITLE4=Dans voor jou deur
TTITLE5=Sekelmaan
TTITLE6=Wie is jy nou
TTITLE7=Dat jy myne is
TTITLE8=Strand dans
TTITLE9=Soos altyd
TTITLE10=Danèl se wals
TTITLE11=Lig op die horison
EXTD=
EXTT0=
EXTT1=
EXTT2=
EXTT3=
EXTT4=
EXTT5=
EXTT6=
EXTT7=
EXTT8=
EXTT9=
EXTT10=
EXTT11=
PLAYORDER=
